<?xml version="1.0" encoding="utf-8"?>
<!-- Generator: Adobe Illustrator 27.5.0, SVG Export Plug-In . SVG Version: 6.00 Build 0)  -->
<svg version="1.1" id="Layer_1" xmlns="http://www.w3.org/2000/svg" xmlns:xlink="http://www.w3.org/1999/xlink" x="0px" y="0px"
	 viewBox="0 0 1422 800" style="enable-background:new 0 0 1422 800;" xml:space="preserve">
<g>
	<defs>
		<rect id="SVGID_1_" width="1422" height="800"/>
	</defs>
	<clipPath id="SVGID_00000039848062911927824470000017815521642247929490_">
		<use xlink:href="#SVGID_1_"  style="overflow:visible;"/>
	</clipPath>
	<g style="clip-path:url(#SVGID_00000039848062911927824470000017815521642247929490_);">
		
			<rect x="-19.699" y="-7" transform="matrix(0.7071 -0.7071 0.7071 0.7071 4.5649 13.0206)" style="fill:#231F20;" width="75.397" height="16"/>
		<polygon style="fill:#231F20;" points="291,33.313 333,-8.687 375,33.313 386.313,22 344.313,-20 333,-31.313 321.686,-20 
			279.686,22 		"/>
		
			<rect x="514" y="-36.698" transform="matrix(0.7071 -0.7071 0.7071 0.7071 152.1831 369.4025)" style="fill:#231F20;" width="16" height="75.397"/>
		<polygon style="fill:#231F20;" points="39,33.313 50.313,22 92.313,-20 81,-31.313 39,10.687 27.686,22 -14.314,64 -3,75.313 		
			"/>
		
			<rect x="220" y="5.302" transform="matrix(0.7071 -0.7071 0.7071 0.7071 36.374 173.8146)" style="fill:#231F20;" width="16" height="75.397"/>
		<path style="fill:#231F20;" d="M405.686,64L417,75.313l42-42L489.686,64L459,94.687L447.686,106L417,136.687L405.686,148
			L417,159.313L447.686,190L417,220.687L405.686,232L375,262.687L363.686,274L333,304.687L321.686,316L291,346.687L279.686,358
			L249,388.687L237.686,400L249,411.313L279.686,442l-42,42L249,495.313l42-42L321.686,484L333,495.313l42,42L386.313,526l-42-42
			L333,472.687L302.313,442L291,430.687L260.313,400L291,369.313L302.313,358L333,327.313L344.313,316L375,285.313L386.313,274
			L417,243.313L447.686,274l-42,42L417,327.313l42-42L470.313,274L459,262.687L428.313,232L459,201.313L489.686,232L501,243.313
			l42,42L554.313,274l-42-42L543,201.313L573.686,232L585,243.313L615.686,274L627,285.313L638.313,274L669,243.313l42-42l0,0
			L741.687,232L711,262.687l-42,42l0,0L657.686,316L669,327.313l0,0L699.687,358l-42,42L669,411.313l42-42l0,0L722.314,358
			L711,346.687l0,0L680.313,316L711,285.313l0,0l42-42L783.687,274L753,304.687L741.687,316L753,327.313L783.687,358L753,388.687
			L741.687,400L753,411.313l42,42L806.314,442l-42-42L795,369.313L825.687,400L837,411.313L848.314,400L879,369.313L909.687,400
			l-42,42L879,453.313l42-42L951.687,442L963,453.313L993.687,484L963,514.687L951.687,526L963,537.313L993.687,568L963,598.687
			l-42-42L909.687,568l42,42L963,621.313L993.687,652l-42,42L963,705.313l42-42L1016.314,652L1047,621.313L1058.314,610l42-42
			L1089,556.687l-42,42L1035.687,610L1005,640.687L974.314,610L1005,579.313L1016.314,568L1005,556.687L974.314,526L1005,495.313
			L1016.314,484L1005,472.687L974.314,442L963,430.687L932.314,400L921,388.687L890.314,358L879,346.687L848.314,316L879,285.313
			l42,42L932.314,316l-42-42L879,262.687L867.687,274L837,304.687L825.687,316L837,327.313L867.687,358L837,388.687L806.314,358
			L795,346.687L764.314,316L795,285.313L806.314,274L795,262.687L764.314,232L795,201.313L806.314,190L795,178.687l-42-42
			L741.687,148l42,42L753,220.687L722.314,190L711,178.687l0,0L680.313,148l42-42L711,94.687l-42,42l0,0L657.686,148L627,178.687
			L615.686,190L585,220.687L554.313,190L585,159.313L596.313,148L627,117.313L638.313,106L627,94.687L596.313,64L627,33.313
			L657.686,64L669,75.313l42-42l0,0L764.314-20L753-31.313l-42,42l-42,42L638.313,22L627,10.687L615.686,22L585,52.687L573.686,64
			L585,75.313L615.686,106L585,136.687L573.686,148L543,178.687L512.313,148l42-42L543,94.687l-42,42L470.313,106L501,75.313
			L512.313,64L501,52.687L470.313,22L459,10.687l-42-42L405.686-20l42,42L405.686,64z M669,159.313L669,159.313L699.687,190
			L669,220.687l0,0L638.313,190L669,159.313z M627,201.313L657.686,232L627,262.687L596.313,232L627,201.313z M489.686,148
			L501,159.313L531.686,190L501,220.687L470.313,190L459,178.687L428.313,148L459,117.313L489.686,148z"/>
		<polygon style="fill:#231F20;" points="501,33.313 531.686,64 489.686,106 501,117.313 543,75.313 573.686,106 531.686,148 
			543,159.313 585,117.313 596.313,106 585,94.687 554.313,64 585,33.313 596.313,22 627,-8.687 657.686,22 669,33.313 722.314,-20 
			711,-31.313 669,10.687 638.313,-20 627,-31.313 615.686,-20 585,10.687 543,-31.313 531.686,-20 573.686,22 543,52.687 
			512.313,22 501,10.687 459,-31.313 447.686,-20 489.686,22 		"/>
		<polygon style="fill:#231F20;" points="909.687,22 921,33.313 951.687,64 921,94.687 909.687,106 921,117.313 963,159.313 
			974.314,148 932.314,106 963,75.313 974.314,64 963,52.687 932.314,22 974.314,-20 963,-31.313 921,10.687 		"/>
		<polygon style="fill:#231F20;" points="1161.687,22 1131,52.687 1089,10.687 1077.687,22 1119.687,64 1131,75.313 1173,117.313 
			1184.314,106 1142.314,64 1173,33.313 1203.687,64 1215,75.313 1245.687,106 1203.687,148 1215,159.313 1257,117.313 
			1268.314,106 1257,94.687 1226.314,64 1215,52.687 1184.314,22 1215,-8.687 1245.687,22 1257,33.313 1287.687,64 1299,75.313 
			1329.687,106 1287.687,148 1299,159.313 1341,117.313 1352.314,106 1383,75.313 1394.314,64 1425,33.313 1436.314,22 1425,10.687 
			1383,-31.313 1371.687,-20 1413.687,22 1383,52.687 1371.687,64 1341,94.687 1310.314,64 1299,52.687 1268.314,22 1257,10.687 
			1226.314,-20 1215,-31.313 1203.687,-20 1173,10.687 		"/>
		<path style="fill:#231F20;" d="M1299,33.313L1329.687,64L1341,75.313L1352.314,64L1383,33.313L1394.314,22L1383,10.687
			L1352.314-20L1341-31.313L1329.687-20L1299,10.687l-42-42L1245.687-20l42,42L1299,33.313z M1341-8.687L1371.687,22L1341,52.687
			L1310.314,22L1341-8.687z"/>
		<path style="fill:#231F20;" d="M1383,94.687L1371.687,106L1341,136.687L1329.687,148L1299,178.687L1268.314,148L1299,117.313
			L1310.314,106L1299,94.687L1268.314,64L1257,52.687l-42-42L1203.687,22l42,42L1257,75.313L1287.687,106L1257,136.687L1245.687,148
			L1215,178.687L1184.314,148L1215,117.313L1226.314,106L1215,94.687l-42-42L1161.687,64l42,42L1173,136.687L1142.314,106
			L1131,94.687L1100.314,64L1089,52.687L1058.314,22L1089-8.687L1119.687,22L1131,33.313L1142.314,22l42-42L1173-31.313l-42,42
			L1100.314-20L1089-31.313L1077.687-20L1047,10.687L1016.314-20L1005-31.313L993.687-20L963,10.687L951.687,22L963,33.313
			L993.687,64L963,94.687L951.687,106L963,117.313L993.687,148L963,178.687L932.314,148L921,136.687L890.314,106L921,75.313
			L932.314,64L921,52.687L890.314,22l42-42L921-31.313l-42,42l-42-42L825.687-20l42,42L837,52.687l-42-42L783.687,22l42,42
			L837,75.313L848.314,64L879,33.313L909.687,64L879,94.687L867.687,106L837,136.687l-42-42L783.687,106l42,42L837,159.313
			L867.687,190l-42,42L837,243.313l42-42L890.314,190L921,159.313L951.687,190l-42,42L921,243.313l42-42L993.687,232l-42,42
			L963,285.313l42-42L1035.687,274L1005,304.687L993.687,316L1005,327.313l42,42L1058.314,358l-42-42L1047,285.313L1077.687,316
			L1089,327.313L1100.314,316L1131,285.313L1161.687,316l-42,42L1131,369.313l42-42L1203.687,358L1173,388.687L1161.687,400
			L1173,411.313l42,42L1226.314,442l-42-42L1215,369.313L1226.314,358L1257,327.313L1287.687,358L1299,369.313L1310.314,358l42-42
			L1341,304.687l-42,42L1268.314,316l42-42L1299,262.687l-42,42L1245.687,316L1215,346.687L1184.314,316L1173,304.687L1142.314,274
			L1173,243.313L1184.314,232L1215,201.313L1226.314,190L1257,159.313L1287.687,190L1299,201.313L1310.314,190L1341,159.313
			L1352.314,148L1383,117.313L1394.314,106l42-42L1425,52.687L1383,94.687z M879,178.687L848.314,148L879,117.313L909.687,148
			L879,178.687z M1089,304.687L1058.314,274L1089,243.313L1119.687,274L1089,304.687z M1131,262.687L1100.314,232L1131,201.313
			L1161.687,232L1131,262.687z M1173,220.687L1142.314,190L1131,178.687L1119.687,190L1089,220.687l-42-42L1035.687,190l42,42
			L1047,262.687L1016.314,232L1005,220.687L974.314,190L1005,159.313L1016.314,148L1005,136.687L974.314,106L1005,75.313
			L1016.314,64L1005,52.687L974.314,22L1005-8.687L1035.687,22L1047,33.313L1077.687,64L1089,75.313L1119.687,106L1131,117.313
			L1161.687,148L1173,159.313L1203.687,190L1173,220.687z"/>
		<path style="fill:#231F20;" d="M1383,136.687L1371.687,148L1341,178.687L1329.687,190L1299,220.687L1268.314,190L1257,178.687
			L1245.687,190L1215,220.687L1203.687,232L1173,262.687L1161.687,274L1173,285.313L1203.687,316L1215,327.313L1226.314,316
			L1257,285.313L1268.314,274L1299,243.313L1329.687,274l-42,42L1299,327.313l42-42L1371.687,316L1341,346.687L1329.687,358
			L1299,388.687L1268.314,358L1257,346.687L1245.687,358L1215,388.687L1203.687,400L1215,411.313L1245.687,442L1215,472.687
			L1184.314,442L1173,430.687L1142.314,400l42-42L1173,346.687l-42,42L1100.314,358l42-42L1131,304.687l-42,42l-42-42L1035.687,316
			l42,42L1047,388.687L1016.314,358L1005,346.687L974.314,316l42-42L1005,262.687l-42,42L932.314,274l42-42L963,220.687l-42,42
			L890.314,232l42-42L921,178.687l-42,42L867.687,232L837,262.687L806.314,232L837,201.313L848.314,190L837,178.687L806.314,148
			L795,136.687L764.314,106L795,75.313L825.687,106L837,117.313L848.314,106l42-42L879,52.687l-42,42L806.314,64L795,52.687
			L764.314,22L795-8.687l42,42L848.314,22l-42-42L795-31.313L783.687-20L753,10.687L741.687,22L711,52.687l-42,42l0,0l-42-42
			L615.686,64l42,42L627,136.687L615.686,148l-42,42L585,201.313l42-42L638.313,148L669,117.313l42-42l0,0L741.687,106L711,136.687
			L699.687,148L711,159.313l42,42L764.314,190l-42-42L753,117.313L783.687,148L795,159.313L825.687,190L795,220.687L783.687,232
			L795,243.313L825.687,274L795,304.687L783.687,316L795,327.313l42,42L848.314,358l-42-42L837,285.313L848.314,274L879,243.313
			L909.687,274L921,285.313L951.687,316L921,346.687l-42-42L867.687,316l42,42L921,369.313L951.687,400L963,411.313L993.687,442
			L1005,453.313L1035.687,484L1005,514.687L993.687,526L1005,537.313L1035.687,568l-42,42L1005,621.313l42-42L1058.314,568
			L1089,537.313L1119.687,568L1089,598.687L1077.687,610L1047,640.687L1035.687,652L1005,682.687L993.687,694L963,724.687
			L932.314,694L963,663.313L974.314,652L963,640.687L932.314,610L921,598.687L890.314,568L921,537.313l42,42L974.314,568l-42-42
			L963,495.313L974.314,484L963,472.687L932.314,442L921,430.687L909.687,442L879,472.687L848.314,442l42-42L879,388.687l-42,42
			l-42-42L783.687,400l42,42L795,472.687L764.314,442L753,430.687L722.314,400L753,369.313L764.314,358L753,346.687L722.314,316
			l42-42L753,262.687l-42,42L699.687,316L711,327.313L741.687,358L711,388.687l-42,42l0,0L638.313,400L669,369.313L680.313,358
			L669,346.687L638.313,316L669,285.313L722.314,232L711,220.687l-42,42l0,0l-42,42L596.313,274L585,262.687l-42-42L531.686,232
			l42,42L543,304.687L512.313,274L501,262.687l-42-42L447.686,232l42,42L459,304.687L447.686,316L417,346.687L386.313,316l42-42
			L417,262.687l-42,42L363.686,316L333,346.687L321.686,358L291,388.687L279.686,400L291,411.313L321.686,442L333,453.313
			L363.686,484L375,495.313L405.686,526L375,556.687L344.313,526L333,514.687L302.313,484L291,472.687L279.686,484L249,514.687
			L218.313,484L249,453.313L260.313,442L249,430.687L218.313,400L249,369.313L260.313,358L291,327.313L302.313,316L333,285.313
			L344.313,274L375,243.313L386.313,232L417,201.313L428.313,190L417,178.687L386.313,148L417,117.313L428.313,106l42-42L459,52.687
			l-42,42L386.313,64L417,33.313L428.313,22L417,10.687l-42-42L363.686-20l42,42L375,52.687L344.313,22L333,10.687L321.686,22
			L291,52.687L260.313,22l42-42L291-31.313l-42,42L218.313-20L207-31.313L195.686-20L165,10.687L134.313-20L123-31.313L111.686-20
			L81,10.687L69.686,22L39,52.687L27.686,64l-42,42L-3,117.313l42-42L69.686,106L81,117.313L111.686,148L81,178.687l-42-42
			L27.686,148l42,42L39,220.687l-42-42L-14.314,190l42,42L-3,262.687L-14.314,274L-3,285.313L27.686,316L39,327.313L50.313,316
			L81,285.313L111.686,316L81,346.687L69.686,358L81,369.313L111.686,400L81,430.687l-42-42L27.686,400l42,42L39,472.687l-42-42
			L-14.314,442l42,42l-42,42L-3,537.313l42-42L69.686,526L81,537.313L92.313,526L123,495.313L153.686,526L123,556.687L111.686,568
			L123,579.313L153.686,610L123,640.687L92.313,610L81,598.687L69.686,610L39,640.687L27.686,652L-3,682.687L-14.314,694L-3,705.313
			l42,42L50.313,736l-42-42L39,663.313L50.313,652L81,621.313L111.686,652l-42,42L81,705.313l42-42L153.686,694L123,724.687
			L111.686,736L123,747.313L153.686,778l-42,42L123,831.313l42-42L176.313,778L207,747.313L237.686,778L249,789.313l42,42
			L302.313,820l-42-42L291,747.313L321.686,778L333,789.313L363.686,820L375,831.313L386.313,820L417,789.313L428.313,778
			L459,747.313L470.313,736L501,705.313L531.686,736L543,747.313L554.313,736L585,705.313L596.313,694L627,663.313L638.313,652
			l42-42L669,598.687l-42,42L615.686,652L585,682.687L554.313,652L543,640.687L531.686,652L501,682.687L470.313,652L501,621.313
			L512.313,610L543,579.313L573.686,610L585,621.313L596.313,610L627,579.313L638.313,568L627,556.687L596.313,526L585,514.687
			L573.686,526L543,556.687L512.313,526L543,495.313L554.313,484l42-42L585,430.687l-42,42L531.686,484L501,514.687L489.686,526
			L459,556.687L447.686,568L417,598.687L386.313,568L417,537.313L428.313,526L459,495.313L470.313,484L459,472.687L428.313,442
			L459,411.313L489.686,442L501,453.313L512.313,442l42-42L543,388.687l-42,42L470.313,400L501,369.313L512.313,358L543,327.313
			L573.686,358L585,369.313L615.686,400L627,411.313L657.686,442l-42,42L627,495.313l42-42l0,0l42,42L722.314,484l-42-42
			L711,411.313l0,0L741.687,442L753,453.313L783.687,484L795,495.313L806.314,484L837,453.313L867.687,484L879,495.313L909.687,526
			L879,556.687L867.687,568L879,579.313L909.687,610L879,640.687L867.687,652L837,682.687L825.687,694L795,724.687L783.687,736
			L795,747.313L825.687,778L795,808.687l-42-42L741.687,778l42,42L795,831.313L806.314,820L837,789.313L848.314,778L837,766.687
			L806.314,736L837,705.313l42,42L890.314,736l-42-42L879,663.313L890.314,652L921,621.313L951.687,652L921,682.687L909.687,694
			L921,705.313L951.687,736L921,766.687L909.687,778L921,789.313L951.687,820L963,831.313L974.314,820L1005,789.313l42,42
			L1058.314,820l-42-42L1047,747.313L1077.687,778L1089,789.313L1100.314,778L1131,747.313L1161.687,778l-42,42L1131,831.313l42-42
			l42,42L1226.314,820l-42-42L1215,747.313L1226.314,736L1257,705.313L1268.314,694L1299,663.313L1310.314,652L1299,640.687
			L1268.314,610L1257,598.687L1245.687,610l-42,42L1215,663.313l42-42L1287.687,652L1257,682.687L1245.687,694L1215,724.687
			L1184.314,694L1173,682.687L1161.687,694L1131,724.687l-42-42L1077.687,694l42,42L1089,766.687L1058.314,736L1047,724.687
			L1016.314,694L1047,663.313L1058.314,652L1089,621.313l42,42L1142.314,652l-42-42L1131,579.313L1161.687,610L1173,621.313
			L1184.314,610L1215,579.313L1226.314,568L1257,537.313L1287.687,568L1299,579.313L1310.314,568L1341,537.313L1371.687,568
			L1383,579.313L1394.314,568l42-42L1425,514.687l-42,42L1352.314,526L1383,495.313L1394.314,484l42-42L1425,430.687l-42,42
			L1371.687,484L1341,514.687L1329.687,526L1299,556.687L1268.314,526l42-42L1299,472.687l-42,42L1245.687,526L1215,556.687
			L1203.687,568L1173,598.687L1142.314,568L1173,537.313L1184.314,526L1173,514.687L1142.314,484L1131,472.687L1100.314,442
			L1131,411.313L1161.687,442L1173,453.313L1203.687,484L1215,495.313L1226.314,484L1257,453.313L1268.314,442L1299,411.313
			L1329.687,442L1341,453.313L1352.314,442L1383,411.313L1394.314,400L1425,369.313L1436.314,358L1425,346.687L1394.314,316l42-42
			L1425,262.687l-42,42L1352.314,274L1341,262.687L1310.314,232L1341,201.313l42,42L1394.314,232l-42-42L1383,159.313L1394.314,148
			l42-42L1425,94.687L1383,136.687z M722.314,64L753,33.313L783.687,64L753,94.687L722.314,64z M237.686,442L207,472.687
			L176.313,442L207,411.313L237.686,442z M291,304.687L260.313,274L291,243.313L321.686,274L291,304.687z M333,262.687L302.313,232
			L333,201.313L363.686,232L333,262.687z M207-8.687L237.686,22L249,33.313L279.686,64L249,94.687L218.313,64L207,52.687L176.313,22
			L207-8.687z M195.686,64L165,94.687L134.313,64L165,33.313L195.686,64z M123-8.687L153.686,22L123,52.687L92.313,22L123-8.687z
			 M50.313,64L81,33.313L111.686,64L81,94.687L50.313,64z M92.313,274L81,262.687L69.686,274L39,304.687L8.313,274L39,243.313
			L50.313,232L81,201.313L92.313,190L123,159.313L134.313,148L123,136.687L92.313,106L123,75.313L153.686,106L165,117.313
			L176.313,106L207,75.313L237.686,106L207,136.687L195.686,148L165,178.687L153.686,190L165,201.313L195.686,232L165,262.687
			l-42-42L111.686,232l42,42L165,285.313L176.313,274L207,243.313L218.313,232l42-42L249,178.687l-42,42L176.313,190L207,159.313
			L218.313,148L249,117.313l42,42L302.313,148l-42-42L291,75.313L302.313,64L333,33.313L363.686,64L375,75.313L405.686,106
			L375,136.687L363.686,148L375,159.313L405.686,190L375,220.687L344.313,190L333,178.687L321.686,190L291,220.687L279.686,232
			L249,262.687L237.686,274L249,285.313L279.686,316L249,346.687L237.686,358L207,388.687L195.686,400L165,430.687L134.313,400
			L165,369.313L176.313,358L165,346.687L134.313,316L123,304.687L92.313,274z M92.313,358L123,327.313L153.686,358L123,388.687
			L92.313,358z M111.686,484L81,514.687L50.313,484L81,453.313L92.313,442L123,411.313L153.686,442L123,472.687L111.686,484z
			 M134.313,652L165,621.313L195.686,652L165,682.687L134.313,652z M165,766.687L134.313,736L165,705.313L195.686,736L165,766.687z
			 M375,808.687L344.313,778L333,766.687L302.313,736L291,724.687L279.686,736L249,766.687L218.313,736L207,724.687L176.313,694
			L207,663.313L218.313,652L207,640.687L176.313,610L165,598.687L134.313,568L165,537.313L195.686,568L207,579.313L237.686,610
			L249,621.313L279.686,652L291,663.313L321.686,694L333,705.313L363.686,736L375,747.313L405.686,778L375,808.687z M543,663.313
			L573.686,694L543,724.687L512.313,694L543,663.313z M585,537.313L615.686,568L585,598.687L554.313,568L585,537.313z M459,579.313
			L470.313,568L501,537.313L531.686,568L501,598.687L489.686,610L459,640.687L428.313,610L459,579.313z M405.686,610L417,621.313
			L447.686,652L459,663.313L489.686,694L459,724.687L447.686,736L417,766.687L386.313,736L375,724.687L344.313,694L375,663.313
			l42,42L428.313,694l-42-42L375,640.687L363.686,652L333,682.687L302.313,652L291,640.687L260.313,610L291,579.313l42,42
			L344.313,610l-42-42L291,556.687L279.686,568L249,598.687L218.313,568L207,556.687L176.313,526L165,514.687L134.313,484
			L165,453.313L195.686,484L207,495.313L237.686,526L249,537.313L260.313,526L291,495.313L321.686,526L333,537.313L363.686,568
			L375,579.313L405.686,610z M447.686,484L417,514.687L386.313,484L417,453.313L447.686,484z M459,388.687L447.686,400L417,430.687
			l-42-42L363.686,400l42,42L375,472.687L344.313,442L333,430.687L302.313,400L333,369.313L344.313,358L375,327.313L405.686,358
			L417,369.313L428.313,358L459,327.313L489.686,358L459,388.687z M501,346.687L470.313,316L501,285.313L531.686,316L501,346.687z
			 M554.313,316L585,285.313L615.686,316L585,346.687L554.313,316z M596.313,358L627,327.313L657.686,358L627,388.687L596.313,358z
			 M890.314,484L921,453.313L951.687,484L921,514.687L890.314,484z M1173,705.313L1203.687,736L1173,766.687L1142.314,736
			L1173,705.313z M1035.687,736L1005,766.687L993.687,778L963,808.687L932.314,778L963,747.313L974.314,736L1005,705.313
			L1035.687,736z M974.314,400L963,388.687L932.314,358L963,327.313L993.687,358L1005,369.313L1035.687,400L1005,430.687
			L974.314,400z M1016.314,442L1047,411.313L1077.687,442L1047,472.687L1016.314,442z M1161.687,526L1131,556.687L1100.314,526
			L1131,495.313L1161.687,526z M1119.687,484L1089,514.687L1077.687,526L1047,556.687L1016.314,526L1047,495.313L1058.314,484
			L1089,453.313L1119.687,484z M1089,430.687L1058.314,400L1089,369.313L1119.687,400L1089,430.687z M1257,430.687L1226.314,400
			L1257,369.313L1287.687,400L1257,430.687z M1341,430.687L1310.314,400L1341,369.313L1371.687,400L1341,430.687z M1413.687,358
			L1383,388.687L1352.314,358L1383,327.313L1413.687,358z M1257,262.687L1245.687,274L1215,304.687L1184.314,274L1215,243.313
			L1226.314,232L1257,201.313L1287.687,232L1257,262.687z"/>
		<polygon style="fill:#231F20;" points="39,201.313 50.313,190 8.313,148 39,117.313 81,159.313 92.313,148 50.313,106 39,94.687 
			27.686,106 -3,136.687 -14.314,148 -3,159.313 		"/>
		
			<rect x="472" y="131.302" transform="matrix(0.7071 -0.7071 0.7071 0.7071 21.0876 388.91)" style="fill:#231F20;" width="16" height="75.397"/>
		<path style="fill:#231F20;" d="M1131,136.687L1100.314,106L1089,94.687L1058.314,64L1047,52.687l-42-42L993.687,22l42,42
			L1005,94.687L993.687,106L1005,117.313L1035.687,148L1005,178.687L993.687,190L1005,201.313l42,42L1058.314,232l-42-42
			L1047,159.313L1077.687,190L1089,201.313L1100.314,190L1131,159.313l42,42L1184.314,190l-42-42L1131,136.687z M1016.314,106
			L1047,75.313L1077.687,106L1047,136.687L1016.314,106z M1089,178.687L1058.314,148L1089,117.313L1119.687,148L1089,178.687z"/>
		<polygon style="fill:#231F20;" points="1425,136.687 1383,178.687 1371.687,190 1383,201.313 1413.687,232 1383,262.687 
			1341,220.687 1329.687,232 1371.687,274 1383,285.313 1394.314,274 1425,243.313 1436.314,232 1425,220.687 1394.314,190 
			1436.314,148 		"/>
		
			<rect x="1198.302" y="245" transform="matrix(0.7071 -0.7071 0.7071 0.7071 183.1181 948.0861)" style="fill:#231F20;" width="75.397" height="16"/>
		<path style="fill:#231F20;" d="M165,327.313L195.686,358l-42,42L165,411.313l42-42L218.313,358L249,327.313L260.313,316
			L249,304.687L218.313,274L249,243.313L260.313,232L291,201.313L302.313,190L333,159.313l42,42L386.313,190l-42-42L375,117.313
			L386.313,106L375,94.687L344.313,64L333,52.687L321.686,64L291,94.687L279.686,106L291,117.313L321.686,148L291,178.687
			L260.313,148L249,136.687L237.686,148l-42,42L207,201.313l42-42L279.686,190L249,220.687L237.686,232L207,262.687L195.686,274
			L165,304.687L134.313,274L123,262.687L92.313,232L123,201.313l42,42L176.313,232l-42-42L165,159.313L176.313,148l42-42L207,94.687
			l-42,42l-42-42L111.686,106l42,42L123,178.687L111.686,190L81,220.687L69.686,232l-42,42L39,285.313l42-42L111.686,274
			L123,285.313L153.686,316L165,327.313z M302.313,106L333,75.313L363.686,106L333,136.687L302.313,106z M207,285.313L237.686,316
			L207,346.687L176.313,316L207,285.313z"/>
		<polygon style="fill:#231F20;" points="417,388.687 386.313,358 375,346.687 363.686,358 333,388.687 321.686,400 333,411.313 
			375,453.313 386.313,442 344.313,400 375,369.313 405.686,400 417,411.313 428.313,400 470.313,358 459,346.687 		"/>
		
			<rect x="976" y="341.302" transform="matrix(0.7071 -0.7071 0.7071 0.7071 20.2135 806.7998)" style="fill:#231F20;" width="16" height="75.397"/>
		<polygon style="fill:#231F20;" points="-14.314,400 -3,411.313 39,453.313 50.313,442 8.313,400 39,369.313 81,411.313 
			92.313,400 50.313,358 92.313,316 81,304.687 39,346.687 -3,304.687 -14.314,316 27.686,358 -3,388.687 		"/>
		<polygon style="fill:#231F20;" points="1383,430.687 1371.687,442 1341,472.687 1310.314,442 1299,430.687 1287.687,442 
			1257,472.687 1245.687,484 1215,514.687 1184.314,484 1173,472.687 1131,430.687 1119.687,442 1161.687,484 1173,495.313 
			1203.687,526 1161.687,568 1173,579.313 1215,537.313 1226.314,526 1257,495.313 1268.314,484 1299,453.313 1329.687,484 
			1287.687,526 1299,537.313 1341,495.313 1352.314,484 1383,453.313 1394.314,442 1436.314,400 1425,388.687 		"/>
		
			<rect x="64.301" y="455" transform="matrix(0.7071 -0.7071 0.7071 0.7071 -297.5154 207.7343)" style="fill:#231F20;" width="75.397" height="16"/>
		
			<rect x="1030.302" y="497" transform="matrix(0.7071 -0.7071 0.7071 0.7071 -44.2789 903.1013)" style="fill:#231F20;" width="75.397" height="16"/>
		
			<rect x="1366.302" y="497" transform="matrix(0.7071 -0.7071 0.7071 0.7071 54.1332 1140.6892)" style="fill:#231F20;" width="75.397" height="16"/>
		
			<rect x="694.302" y="539" transform="matrix(0.7071 -0.7071 0.7071 0.7071 -172.3895 677.8149)" style="fill:#231F20;" width="75.397" height="16"/>
		
			<rect x="-19.699" y="581" transform="matrix(0.7071 -0.7071 0.7071 0.7071 -411.2139 185.2419)" style="fill:#231F20;" width="75.397" height="16"/>
		<polygon style="fill:#231F20;" points="333,556.687 302.313,526 291,514.687 279.686,526 249,556.687 218.313,526 207,514.687 
			165,472.687 153.686,484 195.686,526 207,537.313 237.686,568 249,579.313 260.313,568 291,537.313 321.686,568 333,579.313 
			363.686,610 333,640.687 291,598.687 279.686,610 321.686,652 333,663.313 344.313,652 375,621.313 405.686,652 417,663.313 
			447.686,694 417,724.687 375,682.687 363.686,694 405.686,736 417,747.313 428.313,736 459,705.313 470.313,694 459,682.687 
			428.313,652 417,640.687 386.313,610 375,598.687 344.313,568 		"/>
		
			<rect x="442.301" y="581" transform="matrix(0.7071 -0.7071 0.7071 0.7071 -275.8972 511.9252)" style="fill:#231F20;" width="75.397" height="16"/>
		<path style="fill:#231F20;" d="M1425,556.687l-42,42L1352.314,568L1341,556.687L1329.687,568L1299,598.687L1268.314,568
			L1257,556.687L1245.687,568L1215,598.687L1203.687,610L1173,640.687l-42-42L1119.687,610l42,42L1131,682.687L1100.314,652
			L1089,640.687L1077.687,652L1047,682.687L1035.687,694L1047,705.313l42,42L1100.314,736l-42-42L1089,663.313L1119.687,694
			L1131,705.313L1142.314,694L1173,663.313L1203.687,694L1215,705.313L1226.314,694l42-42L1257,640.687l-42,42L1184.314,652
			L1215,621.313L1226.314,610L1257,579.313L1287.687,610L1299,621.313L1329.687,652L1299,682.687L1287.687,694L1257,724.687
			L1245.687,736L1215,766.687L1203.687,778L1215,789.313L1245.687,820L1257,831.313L1268.314,820L1299,789.313L1310.314,778
			L1299,766.687L1268.314,736L1299,705.313L1310.314,694L1341,663.313L1371.687,694L1383,705.313L1413.687,736L1383,766.687l-42-42
			L1329.687,736l42,42l-42,42L1341,831.313l42-42l42,42L1436.314,820l-42-42L1425,747.313L1436.314,736L1425,724.687L1394.314,694
			L1425,663.313L1436.314,652L1425,640.687L1394.314,610l42-42L1425,556.687z M1287.687,778L1257,808.687L1226.314,778L1257,747.313
			L1287.687,778z M1413.687,652L1383,682.687L1352.314,652L1341,640.687L1310.314,610L1341,579.313L1371.687,610L1383,621.313
			L1413.687,652z"/>
		<polygon style="fill:#231F20;" points="39,621.313 50.313,610 81,579.313 123,621.313 134.313,610 92.313,568 134.313,526 
			123,514.687 81,556.687 50.313,526 39,514.687 27.686,526 -14.314,568 -3,579.313 39,537.313 69.686,568 39,598.687 27.686,610 
			-14.314,652 -3,663.313 		"/>
		
			<rect x="1354" y="593.302" transform="matrix(0.7071 -0.7071 0.7071 0.7071 -47.2637 1147.8953)" style="fill:#231F20;" width="16" height="75.397"/>
		<path style="fill:#231F20;" d="M333,724.687L302.313,694L291,682.687L260.313,652L249,640.687L218.313,610L207,598.687l-42-42
			L153.686,568l42,42L207,621.313L237.686,652L207,682.687L195.686,694L207,705.313L237.686,736L249,747.313L260.313,736
			L291,705.313L321.686,736L333,747.313l42,42L386.313,778l-42-42L333,724.687z M249,724.687L218.313,694L249,663.313L279.686,694
			L249,724.687z"/>
		<path style="fill:#231F20;" d="M711,747.313L711,747.313L722.314,736L711,724.687l0,0L680.313,694L711,663.313l0,0l42,42
			L764.314,694l-42-42L753,621.313l42,42L806.314,652l-42-42L795,579.313l42,42L848.314,610l-42-42L795,556.687L783.687,568
			L753,598.687L741.687,610L711,640.687l-42,42l0,0L657.686,694L627,724.687L615.686,736L627,747.313L657.686,778L627,808.687
			l-42-42L573.686,778l42,42L627,831.313L638.313,820L669,789.313L711,747.313z M669,766.687L638.313,736L669,705.313l0,0
			L699.687,736L669,766.687L669,766.687z"/>
		<path style="fill:#231F20;" d="M753,747.313l42,42L806.314,778l-42-42L795,705.313L806.314,694L837,663.313L848.314,652
			L879,621.313L890.314,610L879,598.687L848.314,568L879,537.313L890.314,526L879,514.687L848.314,484L837,472.687L825.687,484
			L795,514.687L764.314,484L753,472.687l-42-42L699.687,442l42,42L711,514.687l0,0l-42-42L657.686,484L627,514.687L596.313,484
			L627,453.313L638.313,442L627,430.687L596.313,400L585,388.687L554.313,358L543,346.687L531.686,358l-42,42L501,411.313l42-42
			L573.686,400L543,430.687L531.686,442L501,472.687l-42-42L447.686,442l42,42L459,514.687L447.686,526l-42,42L417,579.313l42-42
			L470.313,526L501,495.313L512.313,484L543,453.313L554.313,442L585,411.313L615.686,442L585,472.687L573.686,484l-42,42
			L543,537.313l42-42L615.686,526L627,537.313L657.686,568L627,598.687L615.686,610L585,640.687L554.313,610L543,598.687
			L531.686,610l-42,42L501,663.313l42-42L573.686,652L585,663.313L596.313,652L627,621.313L638.313,610L669,579.313l0,0L699.687,610
			L669,640.687l0,0l-42,42L615.686,694L585,724.687L573.686,736L543,766.687L512.313,736L501,724.687L489.686,736L459,766.687
			L447.686,778l-42,42L417,831.313l42-42L470.313,778L501,747.313L531.686,778L543,789.313l42,42L596.313,820l-42-42L585,747.313
			l42,42L638.313,778l-42-42L627,705.313L638.313,694L669,663.313l42-42l0,0L722.314,610L753,579.313L764.314,568L795,537.313
			L825.687,568L837,579.313L867.687,610L837,640.687l-42-42L783.687,610l42,42L795,682.687l-42-42L741.687,652l42,42L753,724.687
			l-42-42L699.687,694l42,42L711,766.687L657.686,820L669,831.313l42-42l0,0l42,42L764.314,820l-42-42L753,747.313z M638.313,526
			L669,495.313L699.687,526L669,556.687l0,0L638.313,526z M753,556.687L741.687,568L711,598.687l0,0L680.313,568L711,537.313l0,0
			L722.314,526L753,495.313L783.687,526L753,556.687z M806.314,526L837,495.313L867.687,526L837,556.687L806.314,526z"/>
		<polygon style="fill:#231F20;" points="921,747.313 932.314,736 921,724.687 890.314,694 932.314,652 921,640.687 879,682.687 
			867.687,694 879,705.313 909.687,736 879,766.687 837,724.687 825.687,736 867.687,778 825.687,820 837,831.313 879,789.313 
			921,831.313 932.314,820 890.314,778 		"/>
		
			<rect x="946.302" y="749" transform="matrix(0.7071 -0.7071 0.7071 0.7071 -247.0728 917.5134)" style="fill:#231F20;" width="75.397" height="16"/>
		
			<rect x="10" y="761.302" transform="matrix(0.7071 -0.7071 0.7071 0.7071 -559.7063 246.7494)" style="fill:#231F20;" width="16" height="75.397"/>
		<path style="fill:#231F20;" d="M134.313,778L123,766.687L92.313,736l42-42L123,682.687l-42,42L50.313,694l42-42L81,640.687l-42,42
			L27.686,694L39,705.313L69.686,736L39,766.687l-42-42L-14.314,736l42,42L39,789.313L69.686,820L81,831.313L92.313,820L123,789.313
			L134.313,778z M81,808.687L50.313,778L81,747.313L111.686,778L81,808.687z"/>
		<polygon style="fill:#231F20;" points="207,766.687 195.686,778 153.686,820 165,831.313 207,789.313 249,831.313 260.313,820 
			218.313,778 		"/>
		
			<rect x="304" y="761.302" transform="matrix(0.7071 -0.7071 0.7071 0.7071 -473.5957 454.6388)" style="fill:#231F20;" width="16" height="75.397"/>
		<polygon style="fill:#231F20;" points="501,766.687 489.686,778 447.686,820 459,831.313 501,789.313 543,831.313 554.313,820 
			512.313,778 		"/>
		<polygon style="fill:#231F20;" points="1131,766.687 1089,808.687 1047,766.687 1035.687,778 1077.687,820 1089,831.313 
			1100.314,820 1142.314,778 		"/>
		<polygon style="fill:#231F20;" points="1352.314,778 1341,766.687 1310.314,736 1341,705.313 1383,747.313 1394.314,736 
			1352.314,694 1341,682.687 1329.687,694 1299,724.687 1287.687,736 1299,747.313 1329.687,778 1287.687,820 1299,831.313 
			1341,789.313 		"/>
	</g>
</g>
</svg>
